<svg xmlns="http://www.w3.org/2000/svg" viewBox="0 0 64 64" role="img" aria-label="Cute paint brush icon">
  <defs>
    <linearGradient id="bg" x1="0" y1="0" x2="1" y2="1">
      <stop offset="0%" stop-color="#c4b5fd"/>
      <stop offset="100%" stop-color="#fbcfe8"/>
    </linearGradient>
    <linearGradient id="handle" x1="0" y1="0" x2="1" y2="1">
      <stop offset="0%" stop-color="#a7f3d0"/>
      <stop offset="100%" stop-color="#6ee7b7"/>
    </linearGradient>
    <linearGradient id="metal" x1="0" y1="0" x2="0" y2="1">
      <stop offset="0%" stop-color="#f9a8d4"/>
      <stop offset="100%" stop-color="#f472b6"/>
    </linearGradient>
    <linearGradient id="tip" x1="0" y1="0" x2="0" y2="1">
      <stop offset="0%" stop-color="#fef3c7"/>
      <stop offset="100%" stop-color="#fde68a"/>
    </linearGradient>
  </defs>

  <rect x="4" y="4" width="56" height="56" rx="14" fill="url(#bg)"/>
  <g transform="rotate(-32 32 32)">
    <rect x="10" y="28" width="34" height="10" rx="5" fill="url(#handle)" stroke="#065f46" stroke-width="1.4"/>
    <circle cx="20" cy="33" r="1.4" fill="#0f172a"/>
    <circle cx="25.2" cy="31" r="1.4" fill="#0f172a"/>
    <path d="M18.8 36.6c1.8 1.7 4.8 1.7 6.6 0" fill="none" stroke="#0f172a" stroke-width="1.2" stroke-linecap="round"/>
    <rect x="44" y="26.5" width="8.5" height="13" rx="2.8" fill="url(#metal)" stroke="#9d174d" stroke-width="1.2"/>
    <path d="M52.5 27.8c4.3.8 6.4 3.2 7 5.2-.9 2.4-3.2 4.9-7 5.8z" fill="url(#tip)" stroke="#92400e" stroke-width="1.2" stroke-linejoin="round"/>
  </g>
</svg>
